<svg version="1.1" id="Layer_1" xmlns="http://www.w3.org/2000/svg" xmlns:xlink="http://www.w3.org/1999/xlink" x="0px" y="0px"
	 width="100%" viewBox="0 0 242 81" enable-background="new 0 0 242 81" xml:space="preserve">
<path fill="#FEFEFE" opacity="1.000000" stroke="none" 
	d="
M193.000000,82.000000 
	C128.666672,82.000000 64.833351,82.000000 1.000017,82.000000 
	C1.000011,55.000011 1.000011,28.000021 1.000006,1.000024 
	C81.666649,1.000016 162.333298,1.000016 242.999954,1.000008 
	C242.999969,27.999977 242.999969,54.999954 242.999985,81.999969 
	C226.500000,82.000000 210.000000,82.000000 193.000000,82.000000 
M123.697929,34.203598 
	C124.527550,30.521112 125.357178,26.838625 126.185661,23.161200 
	C119.089531,21.612740 118.986023,21.650608 117.480591,27.707632 
	C116.144455,33.083488 114.872894,38.475395 113.572830,43.860218 
	C110.605576,37.933582 108.706482,32.011993 106.982864,26.039761 
	C106.318924,23.739265 105.421539,21.615740 102.710938,22.525494 
	C101.025513,23.091171 98.948357,24.533049 98.394913,26.067743 
	C96.214088,32.115242 94.566841,38.355156 92.721596,44.523670 
	C90.528137,38.981136 89.186073,33.372585 87.829025,27.767668 
	C86.407799,21.897665 85.398056,21.376169 78.980637,23.392258 
	C81.614708,34.161118 84.294884,44.941193 86.860947,55.748367 
	C87.421265,58.108212 87.623085,60.133015 91.000473,60.118423 
	C94.104385,60.105011 95.818382,59.450981 96.652504,56.165817 
	C98.247795,49.882793 100.295120,43.714539 102.543076,36.201050 
	C104.978149,44.066105 107.185890,50.502361 108.912010,57.065285 
	C109.774719,60.345425 111.999504,60.437325 114.206055,59.874222 
	C115.676498,59.498970 117.606834,58.082626 117.986282,56.749416 
	C120.031708,49.562653 121.656433,42.256145 123.697929,34.203598 
M54.464802,74.432716 
	C57.128708,74.432549 59.793262,74.470337 62.456394,74.424767 
	C69.240692,74.308693 71.804947,71.779915 71.821732,65.019753 
	C71.860184,49.535694 71.855019,34.051437 71.825287,18.567341 
	C71.811455,11.365099 69.386803,8.913000 62.313915,8.903646 
	C45.497818,8.881405 28.681656,8.879704 11.865563,8.901833 
	C4.899727,8.910998 2.623930,11.132227 2.596272,18.183779 
	C2.535543,33.667694 2.541533,49.152126 2.592634,64.636108 
	C2.617525,72.178368 4.881260,74.400879 12.517929,74.426506 
	C26.170456,74.472336 39.823261,74.434662 54.464802,74.432716 
M193.805573,48.581417 
	C196.563354,51.220291 199.625015,53.613361 202.006073,56.556973 
	C205.383301,60.732067 209.348663,60.486675 215.167007,59.266964 
	C209.779846,54.458866 205.214172,50.383961 200.423416,46.108166 
	C204.939621,41.354500 208.859558,37.228458 212.877289,32.999489 
	C202.451874,28.890194 199.584793,39.081108 192.839203,42.841797 
	C192.839203,35.405777 192.839203,28.638744 192.839203,21.944508 
	C185.529343,20.570322 185.291763,20.750282 185.282410,27.401621 
	C185.277267,31.060986 185.281479,34.720364 185.281464,38.379734 
	C185.281464,45.480110 185.281464,52.580486 185.281464,59.670769 
	C188.217178,59.670769 190.452988,59.670769 193.154617,59.670769 
	C193.154617,55.859707 193.154617,52.391445 193.805573,48.581417 
M135.073380,35.486618 
	C127.910271,43.039555 128.322617,52.064201 136.320099,57.798538 
	C142.025787,61.889603 148.154388,61.960415 154.172470,58.426285 
	C159.386215,55.364491 161.892883,50.647400 161.231796,44.608521 
	C160.541458,38.302109 156.701752,34.254757 150.811142,32.501987 
	C145.497421,30.920885 140.244095,31.400478 135.073380,35.486618 
M228.833252,53.351364 
	C227.103409,53.405602 224.892105,54.171471 223.730606,53.385658 
	C219.629807,50.611252 217.934464,53.142868 215.180252,56.999100 
	C218.821930,58.432201 221.825180,60.204288 225.035660,60.744404 
	C230.357025,61.639648 235.410736,58.417942 236.590363,54.180447 
	C237.755569,49.994751 235.666443,46.579815 230.217560,43.715416 
	C228.091797,42.597939 225.987442,41.439716 223.873337,40.300053 
	C223.942368,39.832813 224.011383,39.365578 224.080399,38.898338 
	C225.459610,38.757793 227.262512,37.989147 228.145264,38.584599 
	C232.129395,41.272057 233.964264,38.954662 235.969696,36.056232 
	C232.026123,31.376554 227.021866,30.743696 222.210800,32.522545 
	C219.945496,33.360111 217.468811,36.532635 217.081970,38.964321 
	C216.156708,44.780594 221.272919,46.535557 225.382751,48.674816 
	C225.676636,48.827801 226.077805,48.869003 226.275909,49.095913 
	C227.281219,50.247528 228.235977,51.443295 228.833252,53.351364 
M173.070496,58.208481 
	C173.278198,52.922253 173.256531,47.610840 173.832428,42.365032 
	C174.006760,40.777096 175.718323,38.214733 176.927673,38.092247 
	C180.987549,37.681053 180.697220,34.932735 181.636658,31.102236 
	C177.893585,32.178650 175.062836,32.992702 172.232086,33.806755 
	C172.343826,33.551506 172.455566,33.296257 172.567307,33.041008 
	C170.507095,32.735016 168.446869,32.429024 166.082321,32.077831 
	C166.082321,41.799953 166.082321,50.655895 166.082321,60.253201 
	C168.613434,59.836220 170.761932,59.482273 173.070496,58.208481 
z"/>
<path fill="#42C4F2" opacity="1.000000" stroke="none" 
	d="
M123.562103,34.597275 
	C121.656433,42.256145 120.031708,49.562653 117.986282,56.749416 
	C117.606834,58.082626 115.676498,59.498970 114.206055,59.874222 
	C111.999504,60.437325 109.774719,60.345425 108.912010,57.065285 
	C107.185890,50.502361 104.978149,44.066105 102.543076,36.201050 
	C100.295120,43.714539 98.247795,49.882793 96.652504,56.165817 
	C95.818382,59.450981 94.104385,60.105011 91.000473,60.118423 
	C87.623085,60.133015 87.421265,58.108212 86.860947,55.748367 
	C84.294884,44.941193 81.614708,34.161118 78.980637,23.392258 
	C85.398056,21.376169 86.407799,21.897665 87.829025,27.767668 
	C89.186073,33.372585 90.528137,38.981136 92.721596,44.523670 
	C94.566841,38.355156 96.214088,32.115242 98.394913,26.067743 
	C98.948357,24.533049 101.025513,23.091171 102.710938,22.525494 
	C105.421539,21.615740 106.318924,23.739265 106.982864,26.039761 
	C108.706482,32.011993 110.605576,37.933582 113.572830,43.860218 
	C114.872894,38.475395 116.144455,33.083488 117.480591,27.707632 
	C118.986023,21.650608 119.089531,21.612740 126.185661,23.161200 
	C125.357178,26.838625 124.527550,30.521112 123.562103,34.597275 
z"/>
<path fill="#EA8943" opacity="1.000000" stroke="none" 
	d="
M53.970375,74.432304 
	C39.823261,74.434662 26.170456,74.472336 12.517929,74.426506 
	C4.881260,74.400879 2.617525,72.178368 2.592634,64.636108 
	C2.541533,49.152126 2.535543,33.667694 2.596272,18.183779 
	C2.623930,11.132227 4.899727,8.910998 11.865563,8.901833 
	C28.681656,8.879704 45.497818,8.881405 62.313915,8.903646 
	C69.386803,8.913000 71.811455,11.365099 71.825287,18.567341 
	C71.855019,34.051437 71.860184,49.535694 71.821732,65.019753 
	C71.804947,71.779915 69.240692,74.308693 62.456394,74.424767 
	C59.793262,74.470337 57.128708,74.432549 53.970375,74.432304 
M8.296930,71.749359 
	C26.770826,71.822411 45.244720,71.895744 63.718616,71.968254 
	C67.428177,71.982811 69.269409,70.034294 69.276840,66.423325 
	C69.310753,49.941608 69.292000,33.459785 69.298340,16.978001 
	C69.299850,13.058015 67.205338,11.094231 63.437965,11.082218 
	C45.957436,11.026480 28.476538,11.025375 10.995996,11.078540 
	C6.997916,11.090700 4.962121,13.114781 4.980753,17.312319 
	C5.052434,33.460869 4.928603,49.610889 5.121225,65.757462 
	C5.143444,67.619965 6.690314,69.464279 8.296930,71.749359 
z"/>
<path fill="#49C7F3" opacity="1.000000" stroke="none" 
	d="
M193.480103,48.752304 
	C193.154617,52.391445 193.154617,55.859707 193.154617,59.670769 
	C190.452988,59.670769 188.217178,59.670769 185.281464,59.670769 
	C185.281464,52.580486 185.281464,45.480110 185.281464,38.379734 
	C185.281479,34.720364 185.277267,31.060986 185.282410,27.401621 
	C185.291763,20.750282 185.529343,20.570322 192.839203,21.944508 
	C192.839203,28.638744 192.839203,35.405777 192.839203,42.841797 
	C199.584793,39.081108 202.451874,28.890194 212.877289,32.999489 
	C208.859558,37.228458 204.939621,41.354500 200.423416,46.108166 
	C205.214172,50.383961 209.779846,54.458866 215.167007,59.266964 
	C209.348663,60.486675 205.383301,60.732067 202.006073,56.556973 
	C199.625015,53.613361 196.563354,51.220291 193.480103,48.752304 
z"/>
<path fill="#43C5F2" opacity="1.000000" stroke="none" 
	d="
M135.363373,35.251106 
	C140.244095,31.400478 145.497421,30.920885 150.811142,32.501987 
	C156.701752,34.254757 160.541458,38.302109 161.231796,44.608521 
	C161.892883,50.647400 159.386215,55.364491 154.172470,58.426285 
	C148.154388,61.960415 142.025787,61.889603 136.320099,57.798538 
	C128.322617,52.064201 127.910271,43.039555 135.363373,35.251106 
M153.022369,42.691914 
	C151.056961,38.601734 147.707642,37.310284 143.504028,38.338860 
	C139.105530,39.415127 136.841553,43.852608 138.010498,48.599930 
	C139.049042,52.817627 143.126572,55.063583 147.813141,53.999359 
	C152.298798,52.980751 154.308929,49.096207 153.022369,42.691914 
z"/>
<path fill="#44C5F2" opacity="1.000000" stroke="none" 
	d="
M229.020844,52.987476 
	C228.235977,51.443295 227.281219,50.247528 226.275909,49.095913 
	C226.077805,48.869003 225.676636,48.827801 225.382751,48.674816 
	C221.272919,46.535557 216.156708,44.780594 217.081970,38.964321 
	C217.468811,36.532635 219.945496,33.360111 222.210800,32.522545 
	C227.021866,30.743696 232.026123,31.376554 235.969696,36.056232 
	C233.964264,38.954662 232.129395,41.272057 228.145264,38.584599 
	C227.262512,37.989147 225.459610,38.757793 224.080399,38.898338 
	C224.011383,39.365578 223.942368,39.832813 223.873337,40.300053 
	C225.987442,41.439716 228.091797,42.597939 230.217560,43.715416 
	C235.666443,46.579815 237.755569,49.994751 236.590363,54.180447 
	C235.410736,58.417942 230.357025,61.639648 225.035660,60.744404 
	C221.825180,60.204288 218.821930,58.432201 215.180252,56.999100 
	C217.934464,53.142868 219.629807,50.611252 223.730606,53.385658 
	C224.892105,54.171471 227.103409,53.405602 229.020844,52.987476 
z"/>
<path fill="#41C4F2" opacity="1.000000" stroke="none" 
	d="
M172.990463,58.668404 
	C170.761932,59.482273 168.613434,59.836220 166.082321,60.253201 
	C166.082321,50.655895 166.082321,41.799953 166.082321,32.077831 
	C168.446869,32.429024 170.507095,32.735016 172.567307,33.041008 
	C172.455566,33.296257 172.343826,33.551506 172.232086,33.806755 
	C175.062836,32.992702 177.893585,32.178650 181.636658,31.102236 
	C180.697220,34.932735 180.987549,37.681053 176.927673,38.092247 
	C175.718323,38.214733 174.006760,40.777096 173.832428,42.365032 
	C173.256531,47.610840 173.278198,52.922253 172.990463,58.668404 
z"/>
<path fill="#FCFEFE" opacity="1.000000" stroke="none" 
	d="
M7.913613,71.533195 
	C6.690314,69.464279 5.143444,67.619965 5.121225,65.757462 
	C4.928603,49.610889 5.052434,33.460869 4.980753,17.312319 
	C4.962121,13.114781 6.997916,11.090700 10.995996,11.078540 
	C28.476538,11.025375 45.957436,11.026480 63.437965,11.082218 
	C67.205338,11.094231 69.299850,13.058015 69.298340,16.978001 
	C69.292000,33.459785 69.310753,49.941608 69.276840,66.423325 
	C69.269409,70.034294 67.428177,71.982811 63.718616,71.968254 
	C45.244720,71.895744 26.770826,71.822411 7.913613,71.533195 
M31.896193,49.602200 
	C31.272781,50.590034 30.649370,51.577869 29.281588,53.745209 
	C38.202621,53.745209 45.842049,53.712215 53.481037,53.755878 
	C59.360767,53.789486 60.506065,52.583374 60.289398,46.616970 
	C53.014984,51.762402 44.855782,46.384224 37.343296,48.814415 
	C37.114918,48.441223 36.886536,48.068031 36.658157,47.694839 
	C44.438721,39.072517 52.219280,30.450195 60.776363,20.967342 
	C51.916351,20.967342 44.304810,21.225546 36.723244,20.860699 
	C32.809109,20.672340 30.841539,21.790636 30.485479,25.949326 
	C37.564003,25.949326 44.470444,25.949326 52.341545,25.949326 
	C45.321518,34.062080 38.845444,41.546211 31.896193,49.602200 
M30.660788,34.292004 
	C31.021584,33.437859 31.382380,32.583710 31.381035,32.586895 
	C27.660778,31.668236 24.074852,30.929098 20.609898,29.814049 
	C19.838888,29.565933 19.493752,27.994442 18.952534,27.032263 
	C20.028591,26.453033 21.081722,25.447626 22.185741,25.388241 
	C24.146975,25.282743 26.139059,25.750719 28.824572,26.060188 
	C24.452858,21.031256 21.808924,20.630468 18.198763,23.784279 
	C13.787533,27.637896 13.938023,29.959684 18.995844,36.081882 
	C10.466877,46.620773 9.721932,55.140343 16.880253,60.276905 
	C23.209152,64.818298 33.747448,63.223721 37.355469,57.189342 
	C32.723324,56.948368 28.066816,56.922939 23.466219,56.402882 
	C19.269766,55.928509 15.699459,54.184917 15.000514,49.356449 
	C14.295639,44.487019 17.042187,41.470112 20.909510,39.337868 
	C23.922827,37.676483 27.124908,36.357468 30.660788,34.292004 
z"/>
<path fill="#FAFDFE" opacity="1.000000" stroke="none" 
	d="
M153.157776,43.050575 
	C154.308929,49.096207 152.298798,52.980751 147.813141,53.999359 
	C143.126572,55.063583 139.049042,52.817627 138.010498,48.599930 
	C136.841553,43.852608 139.105530,39.415127 143.504028,38.338860 
	C147.707642,37.310284 151.056961,38.601734 153.157776,43.050575 
z"/>
<path fill="#49C7F2" opacity="1.000000" stroke="none" 
	d="
M32.132782,49.316273 
	C38.845444,41.546211 45.321518,34.062080 52.341545,25.949326 
	C44.470444,25.949326 37.564003,25.949326 30.485479,25.949326 
	C30.841539,21.790636 32.809109,20.672340 36.723244,20.860699 
	C44.304810,21.225546 51.916351,20.967342 60.776363,20.967342 
	C52.219280,30.450195 44.438721,39.072517 36.658157,47.694839 
	C36.886536,48.068031 37.114918,48.441223 37.343296,48.814415 
	C44.855782,46.384224 53.014984,51.762402 60.289398,46.616970 
	C60.506065,52.583374 59.360767,53.789486 53.481037,53.755878 
	C45.842049,53.712215 38.202621,53.745209 29.281588,53.745209 
	C30.649370,51.577869 31.272781,50.590034 32.132782,49.316273 
z"/>
<path fill="#48C6F2" opacity="1.000000" stroke="none" 
	d="
M30.451946,34.589149 
	C27.124908,36.357468 23.922827,37.676483 20.909510,39.337868 
	C17.042187,41.470112 14.295639,44.487019 15.000514,49.356449 
	C15.699459,54.184917 19.269766,55.928509 23.466219,56.402882 
	C28.066816,56.922939 32.723324,56.948368 37.355782,57.183990 
	C33.747448,63.223721 23.209152,64.818298 16.880253,60.276905 
	C9.721932,55.140343 10.466877,46.620773 18.995844,36.081882 
	C13.938023,29.959684 13.787533,27.637896 18.198763,23.784279 
	C21.808924,20.630468 24.452858,21.031256 28.824572,26.060188 
	C26.139059,25.750719 24.146975,25.282743 22.185741,25.388241 
	C21.081722,25.447626 20.028591,26.453033 18.952534,27.032261 
	C19.493752,27.994442 19.838888,29.565933 20.609898,29.814049 
	C24.074852,30.929098 27.660778,31.668236 31.381035,32.586895 
	C31.382380,32.583710 31.021584,33.437859 30.451946,34.589149 
z"/>
</svg>